<svg version="1.1" xmlns="http://www.w3.org/2000/svg" style="display: block;" viewBox="0 0 4000 4000" width="4000" height="4000" preserveAspectRatio="none">
<path transform="translate(0,0)" fill="rgb(0,0,0)" d="M 2021.13 57.5098 C 2060.75 55.9259 2100.43 56.3337 2140.01 58.7316 C 2470.96 79.6005 2785.61 212.371 3007.94 462.039 C 3305.51 796.195 3319.13 1306.79 2966.87 1608.23 C 2681.34 1852.58 2285.06 1923.71 1918.61 1898.44 C 1827.51 1894.86 1707.54 1877.89 1619.33 1860.82 C 1313.03 1801.53 1024.78 1669.37 817.925 1429.96 C 771.332 1376.04 741.885 1333.13 702.659 1274.52 C 715.281 1221.43 723.292 1168.83 737.45 1114.09 C 795.376 890.135 882.902 684.54 1032.18 506.186 C 1236.05 262.616 1515.03 132.037 1824.36 80.4315 C 1892.75 69.023 1952.37 63.4599 2021.13 57.5098 z M 1316.5 1198.7 C 1442.61 1316.31 1713.42 1346.92 1877.24 1361.1 C 1917.42 1363.57 1961.21 1367.55 2000.57 1367.32 C 2219.55 1365.94 2549.07 1322.1 2564.09 1042.91 C 2564.75 1030.65 2564.21 1019.77 2562.7 1007.72 C 2532.5 767.327 2290.3 671.191 2075.66 665.135 C 2055.47 664.565 2033.86 663.392 2013.69 664.92 C 1809.96 680.621 1594.71 754.826 1460.8 914.795 C 1385.82 1004.36 1348.83 1088.45 1316.5 1198.7 z"/>
<path transform="translate(0,0)" fill="rgb(65,172,83)" d="M 654.027 1532.31 C 660.936 1542.05 679.261 1595.18 685.735 1610.59 C 700.658 1645.96 717.266 1680.59 735.502 1714.38 C 852.367 1928.87 1028.92 2104.87 1243.78 2221.07 C 1553.16 2390.6 1950.52 2444.03 2291.5 2345.36 C 2535.72 2274.7 2722.11 2123.68 2843.54 1900.59 C 2890.05 1925.9 2961.96 1974.14 3008.37 2003.22 L 3353.48 2219.27 C 3334.17 2273.84 3296.02 2339.34 3264.87 2387.63 C 3224.5 2447.64 3178.37 2503.56 3127.13 2554.6 C 2841.36 2838.36 2419.34 2972.4 2022.24 2971.02 C 1648.65 2969.96 1274.53 2844.19 1007.89 2576.1 C 780.318 2347.3 663.302 2039.85 652.373 1719.8 C 651.505 1694.38 649.874 1668.87 650.434 1643.4 C 651.249 1606.32 653.866 1569.42 654.027 1532.31 z"/>
<path transform="translate(0,0)" fill="rgb(0,0,0)" d="M 1948 3312.06 L 2056.62 3312.19 L 2056.62 3385.45 C 2083.85 3353.97 2114.1 3330.25 2155.7 3321.69 C 2195.5 3313.9 2236.77 3322.42 2270.23 3345.35 C 2419.3 3446.08 2394.15 3744.72 2204.92 3780.1 C 2140.06 3785.49 2098.69 3762.67 2056.83 3714.36 C 2055.57 3790.82 2056.93 3868.96 2056.35 3945.74 L 1948.05 3945.7 C 1946.81 3869.96 1947.88 3790.82 1947.87 3714.77 L 1948 3312.06 z M 2179.28 3679.56 C 2209.82 3669.37 2231.15 3648.96 2245.43 3620.36 C 2263.8 3582.65 2266.68 3539.26 2253.47 3499.45 C 2235.43 3446.49 2198.07 3414.31 2139.79 3418.31 C 2106.77 3427.66 2086.93 3442.74 2068.79 3472.47 C 2050.67 3502.18 2058.21 3524.83 2055.88 3557.01 C 2052.37 3605.59 2068.65 3646.46 2111.72 3671.85 C 2133.97 3684.98 2154.24 3684.98 2179.28 3679.56 z"/>
<path transform="translate(0,0)" fill="rgb(0,0,0)" d="M 3674.78 3312.99 C 3745.94 3308.43 3783.5 3329.3 3828.08 3384.77 L 3828.25 3322.24 C 3864.37 3321.87 3901.08 3322.23 3937.25 3322.26 L 3937.21 3780.62 L 3828.16 3780.22 L 3828.03 3734.82 L 3828.04 3707.89 C 3774.83 3770.17 3702.16 3807.42 3624.37 3759.76 C 3470.76 3665.64 3486.33 3359.38 3674.78 3312.99 z M 3743.79 3681.49 C 3881.39 3647.57 3848.52 3390.01 3716.36 3408.58 C 3568.86 3444.94 3615.73 3708.39 3743.79 3681.49 z"/>
<path transform="translate(0,0)" fill="rgb(0,0,0)" d="M 2559.93 3312.92 C 2630.91 3306.45 2669.53 3332.97 2713.09 3385.49 L 2713.36 3322.24 C 2749.08 3321.87 2785.34 3322.22 2821.11 3322.24 L 2821.17 3780.25 C 2785.58 3780.91 2748.89 3780.3 2713.22 3780.13 L 2713.08 3733.72 L 2713.21 3706.93 C 2684.46 3740.29 2656.66 3767.13 2612.31 3777.1 C 2575.39 3785.12 2536.8 3778.04 2505.12 3757.46 C 2355.77 3662.28 2373.26 3354.75 2559.93 3312.92 z M 2628.5 3681.57 C 2736.31 3656 2746.29 3471.8 2655.85 3419.58 C 2639.65 3410.23 2620.48 3405.64 2602.01 3408.58 C 2457.26 3439.32 2495.22 3706.87 2628.5 3681.57 z"/>
<path transform="translate(0,0)" fill="rgb(0,0,0)" d="M 700.292 3313.01 C 775.199 3308.37 807.61 3330.2 855.382 3386.31 C 852.793 3369.08 853.9 3340.45 854.127 3322.24 C 889.832 3321.88 926.075 3322.23 961.825 3322.25 L 962.061 3780.22 C 929.218 3780.99 894.307 3780.34 861.311 3780.25 C 857.192 3780.15 859.307 3780.66 855.134 3778.13 C 852.349 3765.57 853.494 3723.05 853.617 3707.4 C 801.586 3769.55 729.555 3806.94 651.996 3760.73 C 515.161 3679.2 511.713 3434.67 636.996 3341.14 C 657.605 3325.76 675.639 3319.34 700.292 3313.01 z M 769.099 3681.67 C 907.891 3646.17 871.134 3388.56 742.595 3408.61 C 597.453 3440.1 636.105 3706.09 769.099 3681.67 z"/>
<path transform="translate(0,0)" fill="rgb(0,0,0)" d="M 1761.33 3316.51 C 1794.74 3316.44 1832.68 3315.53 1865.71 3317.26 C 1869.24 3348.99 1867 3442.89 1867.08 3478.51 C 1867.5 3533.3 1867.49 3588.1 1867.05 3642.9 C 1866.19 3722.94 1867.81 3799.51 1811.85 3863.58 C 1784.21 3895.23 1755.08 3913.93 1715.45 3927.88 L 1712.31 3928.81 C 1642.08 3949.49 1559.01 3938.63 1496.05 3902.47 C 1400.14 3847.4 1438.05 3836.59 1486.08 3774.52 C 1526.96 3819.77 1570.02 3859.59 1634.99 3853.52 C 1730.56 3844.59 1765.19 3773.68 1758.05 3686.86 C 1727.7 3742.45 1692.19 3772.16 1626.6 3771.73 C 1452.43 3770.59 1467.77 3624.02 1467.7 3501.22 L 1467.56 3316.52 L 1574.07 3316.66 C 1576.38 3378.16 1573.74 3440.02 1574.82 3501.42 C 1575.81 3557.45 1561.78 3668.75 1644.36 3670.03 C 1697.93 3670.85 1739.61 3638.76 1752.02 3587.01 C 1760.93 3549.86 1759.45 3507.81 1760.12 3469.73 C 1761.31 3418.66 1761.71 3367.58 1761.33 3316.51 z"/>
<path transform="translate(0,0)" fill="rgb(0,0,0)" d="M 3247.64 3318.97 C 3338.15 3312.59 3448.61 3332.44 3468.18 3436.48 C 3445.24 3451.34 3414.83 3465.45 3390 3477.75 C 3376.24 3435.76 3340.86 3414.34 3297.4 3409.25 C 3272.54 3406.33 3192.94 3415.82 3194.33 3450.48 C 3195.73 3485.26 3281.14 3491.77 3307.13 3496.08 C 3357.46 3504.42 3416.56 3516.28 3449.65 3559.79 C 3487.61 3610.31 3477.23 3680.43 3431.24 3722.12 C 3377.23 3771.08 3313.66 3782.63 3243.66 3779.08 C 3211.69 3777.16 3172.36 3764.14 3145.46 3746.93 C 3109.29 3723.81 3070.86 3674.21 3059.88 3632.84 C 3089.23 3616.11 3119.14 3600.37 3149.55 3585.65 C 3155.58 3608.9 3163.61 3625.97 3180.06 3643.78 C 3203.39 3669.42 3236.14 3684.46 3270.79 3685.45 C 3298.21 3686.28 3382.25 3661.42 3371.97 3626.48 C 3348.72 3579.51 3232.93 3579.57 3191.85 3566.24 C 3009.63 3507.12 3083.54 3333.86 3247.64 3318.97 z"/>
<path transform="translate(0,0)" fill="rgb(0,0,0)" d="M 1184.88 3319.15 C 1276.6 3312.72 1388.35 3331.25 1408.28 3437.18 C 1383.93 3448.84 1355.3 3465.34 1330.37 3478.12 C 1313.9 3438.07 1288.89 3417.58 1246.05 3409.84 C 1218.33 3404.84 1138.23 3411.83 1134.67 3447.15 C 1130.88 3484.77 1228.09 3492.7 1252.97 3496.75 C 1270.13 3499.39 1287.11 3503.04 1303.84 3507.69 C 1367.13 3525.83 1418.27 3567.21 1412.72 3637.67 C 1404.34 3743.92 1276.96 3785.4 1188.96 3779.46 C 1097.2 3776.9 1030.4 3716.17 998.696 3633.14 C 1030.42 3616.13 1056.78 3601.82 1089.46 3586.07 C 1095.28 3608.28 1106.39 3628.76 1121.84 3645.76 C 1167.07 3694.6 1250.02 3699.73 1297.96 3653.75 C 1364.9 3589.54 1167.27 3578.24 1136.46 3567.28 C 1112.89 3558.9 1088.69 3554.33 1068.55 3537.23 C 1013.6 3496.41 1017.97 3428.02 1057.08 3378.32 C 1088.74 3338.55 1135.92 3324.44 1184.88 3319.15 z"/>
<path transform="translate(0,0)" fill="rgb(0,0,0)" d="M 282.695 3313.2 C 332.885 3307.33 412.031 3334.58 442.387 3374.73 C 549.905 3516.93 413.209 3617.47 275.12 3608.15 C 264.567 3607.59 254.037 3606.65 243.551 3605.33 C 170.194 3596.45 112.56 3562.92 67.4722 3505.08 C 111.757 3384.24 149.516 3328.74 282.695 3313.2 z M 169.392 3494.52 C 201.813 3511.64 227.741 3518.89 263.892 3522.32 C 417.779 3532.89 393.302 3406.32 289.424 3406.53 C 233.167 3415.15 198.139 3447.07 169.392 3494.52 z"/>
<path transform="translate(0,0)" fill="rgb(0,0,0)" d="M 2898.69 3312.11 L 3009.37 3312.17 C 3009.17 3359.46 3011.11 3773.67 3007.11 3780.58 L 2898.51 3780.21 L 2898.69 3312.11 z"/>
<path transform="translate(0,0)" fill="rgb(65,172,83)" d="M 68.6706 3550.21 C 70.8084 3553.1 70.3984 3552.13 71.6308 3555.49 C 95.0464 3618.56 140.355 3655.34 202.032 3676.48 C 278.517 3702.7 377.43 3689.62 417.796 3609.94 C 446.273 3624.83 477.737 3644.59 505.633 3661.28 C 499.018 3671.71 493.808 3678.46 486.238 3688.16 C 481.196 3693.93 475.908 3699.48 470.39 3704.79 C 378.626 3793.81 221.724 3815.23 122.587 3718.24 C 77.5028 3674.13 67.4393 3611.61 68.6706 3550.21 z"/>
<path transform="translate(0,0)" fill="rgb(65,172,83)" d="M 2941.99 3133.7 C 2978.48 3127.22 3013.42 3151.22 3020.46 3187.61 C 3027.5 3223.99 3004.04 3259.3 2967.77 3266.9 C 2943.8 3271.93 2918.99 3263.65 2902.84 3245.23 C 2886.69 3226.82 2881.72 3201.14 2889.83 3178.03 C 2897.94 3154.92 2917.88 3137.98 2941.99 3133.7 z"/>
</svg>