<svg version="1.1" xmlns="http://www.w3.org/2000/svg" style="display: block;" viewBox="0 0 2240 1036" width="2240" height="1036" preserveAspectRatio="none">
<path transform="translate(0,0)" fill="rgb(94,97,101)" d="M 992.596 168.181 C 997.8 168.043 1003.01 167.948 1008.21 167.896 L 1116.6 167.804 C 1196.51 167.806 1255.98 159.509 1318.47 221.118 C 1350.1 252.076 1367.86 294.5 1367.74 338.753 C 1368.15 382.537 1350.75 424.607 1319.53 455.306 C 1262.16 512.658 1209.21 509.084 1135.5 508.967 L 1066.15 509.114 L 1066 659.398 C 1066.01 683.973 1066.9 716.757 1065.17 740.702 C 1048.17 741.285 1007.35 741.868 992.076 739.94 C 991.404 700.217 991.999 658.875 992.007 618.988 L 992.049 385.762 L 991.978 246.418 C 991.962 222.824 991.073 191.2 992.596 168.181 z M 1066.52 239.032 C 1065.24 261.254 1065.94 288.715 1065.94 311.472 L 1066.09 438.01 L 1151.72 438.295 C 1187.31 438.403 1214.03 442.148 1245.45 422.635 C 1269.31 405.927 1285.49 385.2 1290.68 355.989 C 1295.14 330.39 1289.3 304.065 1274.43 282.754 C 1242.41 237.209 1204 237.932 1153.89 238.101 C 1134.62 238.105 1115.36 238.236 1096.09 238.495 L 1066.52 239.032 z"/>
<path transform="translate(0,0)" fill="rgb(94,97,101)" d="M 1520.83 336.566 C 1600.84 327.91 1692.2 368.697 1708.98 453.659 C 1716.92 493.866 1714.08 541.061 1714.08 582.447 C 1714.29 635.15 1714.17 687.853 1713.74 740.553 C 1700.35 741.195 1655.46 741.786 1643.97 740.077 C 1643.96 721.964 1643.62 703.853 1642.94 685.753 C 1636.36 692.156 1629.38 700.673 1623.26 707.851 C 1581.14 757.269 1505.96 764.906 1448.53 740.407 C 1410.95 724.377 1386.26 696.957 1371.63 659.402 C 1363.9 631.355 1363.4 598.401 1374.76 571.242 C 1410.11 486.693 1522.69 475.836 1600.98 494.188 C 1615.46 497.584 1629.39 503.635 1642.86 509.143 C 1650.95 443.179 1594.43 397.53 1531.78 402.175 C 1489.97 405.275 1470.01 422.274 1443.86 452.58 C 1430.25 446.535 1393.12 422.149 1379.28 413.028 C 1411.72 362.775 1463.2 341.547 1520.83 336.566 z M 1552.13 684.499 C 1602.89 673.392 1641.06 626.083 1643.92 574.492 C 1623.7 552.528 1560.28 541.092 1532.6 546.41 C 1503.23 549.549 1475.65 558.75 1456.22 582.429 C 1433.85 609.698 1438.79 646.98 1466.16 668.872 C 1488.31 686.584 1525.09 693.758 1552.13 684.499 z"/>
<path transform="translate(0,0)" fill="rgb(94,97,101)" d="M 2039.39 349.417 C 2054.1 348.355 2106.47 348.454 2119.5 349.943 C 2106.25 375.389 2092.82 409.86 2080.85 436.824 C 2055.15 494.722 2030.68 553.542 2004.7 611.325 C 1966.9 700.579 1926.67 789.049 1888.47 878.157 C 1883.37 890.072 1878.02 902.243 1872.34 913.88 C 1853.35 914.45 1815.37 914.731 1797.77 912.826 C 1807.64 888.999 1819.82 863.902 1830.68 840.36 L 1888.04 716.526 C 1884.95 707.848 1877.65 692.65 1873.74 683.805 L 1844.97 618.645 L 1753.24 410.408 C 1749.28 401.39 1727.96 356.163 1728.07 350.456 L 1732.02 349.281 C 1753.35 348.217 1784.37 348.629 1805.98 349.133 C 1816.22 370.169 1828.11 401.653 1837.27 423.794 L 1891.67 554.446 C 1898.16 570.136 1916.87 617.841 1924.18 629.603 C 1932.82 614.469 1945.93 579.146 1953.09 561.367 L 2008.43 424.354 C 2016.4 404.537 2030.12 367.159 2039.39 349.417 z"/>
<path transform="translate(0,0)" fill="rgb(238,62,49)" d="M 155.889 304.56 C 190.105 230.916 260.576 170.349 336.494 142.557 C 418.611 112.09 509.476 115.551 589.037 152.178 C 619.26 166.116 646.925 185.036 670.874 208.148 C 653.747 226.307 635.256 244.305 617.564 262.013 C 604.922 274.667 590.66 289.735 577.201 301.053 C 532.951 264.901 490.515 247.563 432.08 253.408 C 380.404 258.742 333.03 284.591 300.58 325.16 C 287.535 341.171 270.919 368.477 265.468 388.527 C 260.262 384.011 254.635 379.429 249.08 375.339 C 218.048 352.491 187.861 325.917 155.889 304.56 z"/>
<path transform="translate(0,0)" fill="rgb(48,167,80)" d="M 156.341 599.788 C 191.183 572.142 229.801 541.819 265.482 515.482 C 285.381 564.724 312.539 601.583 360.196 627.35 C 423.615 661.639 502.931 656.947 563.337 618.678 C 575.877 628.661 663.923 694.785 668.667 701.805 C 652.843 717.527 627.094 734.885 607.158 744.691 C 439.544 827.137 242.146 765.505 156.341 599.788 z"/>
<path transform="translate(0,0)" fill="rgb(63,132,250)" d="M 452.057 392.687 C 465.906 391.26 487.616 391.863 502.146 391.866 L 586.981 391.923 L 698.832 391.944 C 717.653 391.951 742.779 391.345 761.222 392.412 C 764.278 404.358 765.888 421.421 766.748 433.977 C 771.468 502.866 757.375 576.493 721.79 636.135 C 706.084 662.458 690.514 680.946 668.667 701.805 C 663.923 694.785 575.877 628.661 563.337 618.678 C 593.73 598.393 619.422 563.837 626.7 527.68 C 627.23 525.159 627.621 522.611 627.871 520.047 C 614.016 518.374 591.603 518.972 577.07 518.969 L 494.442 518.956 C 481.997 518.947 463.809 519.318 451.708 517.822 C 450.327 505.444 450.898 478.424 450.998 464.879 C 451.162 442.561 450.239 414.572 452.057 392.687 z"/>
<path transform="translate(0,0)" fill="rgb(254,188,0)" d="M 155.889 304.56 C 187.861 325.917 218.048 352.491 249.08 375.339 C 254.635 379.429 260.262 384.011 265.468 388.527 C 250.978 430.819 252.661 473.133 265.482 515.482 C 229.801 541.819 191.183 572.142 156.341 599.788 C 148.652 581.392 143.601 573.408 137.021 552.525 C 116.623 487.782 113.03 433.614 132.191 367.698 C 139.339 343.109 143.427 328.358 155.889 304.56 z"/>
</svg>