<svg version="1.1" xmlns="http://www.w3.org/2000/svg" style="display: block;" viewBox="0 0 4000 4000" width="4000" height="4000" preserveAspectRatio="none">
<path transform="translate(0,0)" fill="rgb(254,196,2)" d="M 1923.57 2217.49 C 1805.25 2326.98 1732.91 2358.2 1580.26 2408.3 C 1503.86 2433.98 1425.54 2453.52 1346.03 2466.73 C 1198.04 2490.84 1046.48 2480.44 903.164 2436.34 C 862.38 2424.14 763.348 2392.78 762.928 2345.75 C 762.157 2259.5 949.337 2205.07 1006.28 2172.71 C 1161.34 2084.59 1319.92 1948.81 1369.92 1772.7 C 1392.2 1694.22 1382.81 1580.56 1382.79 1500.13 L 1381.9 884.031 C 1380.94 817.55 1380.57 751.062 1380.8 684.575 C 1380.77 638.14 1372.38 576.41 1403.3 539.461 C 1453.36 479.663 1514.48 505.872 1573.18 530.545 C 1700.8 584.192 1809.01 658.823 1913.01 749.019 C 1983.04 700.316 2104.96 616.72 2183.93 583.581 C 2365.26 507.495 2615.88 490.235 2809 523.436 C 2849.99 532.309 2888.95 538.163 2928.68 554.314 C 3018.33 590.756 3118.76 644.804 3188.97 712.041 C 3204.44 726.857 3192.88 743.203 3174.66 750.333 C 3128.34 768.452 3083.08 786.86 3039.36 811.544 C 2856.03 917.197 2717.06 1085.56 2648.08 1285.6 C 2550.45 1568.18 2670.25 1883.82 2891.98 2077.23 C 2920.29 2101.92 2972.49 2131.52 3005.5 2150.46 C 3032.36 2165.84 3059.68 2180.41 3087.41 2194.15 C 3107.39 2204.12 3170.82 2230.43 3180.62 2241.75 C 3229.42 2298.09 3063.87 2367.35 3035.07 2379.84 C 2783.44 2488.98 2489.35 2513.52 2231.73 2410.44 C 2109.97 2361.86 2021.91 2302.5 1923.57 2217.49 z"/>
<path transform="translate(0,0)" fill="rgb(242,33,37)" d="M 1913.01 749.019 C 1983.04 700.316 2104.96 616.72 2183.93 583.581 C 2365.26 507.495 2615.88 490.235 2809 523.436 C 2849.99 532.309 2888.95 538.163 2928.68 554.314 C 3018.33 590.756 3118.76 644.804 3188.97 712.041 C 3204.44 726.857 3192.88 743.203 3174.66 750.333 C 3128.34 768.452 3083.08 786.86 3039.36 811.544 C 2856.03 917.197 2717.06 1085.56 2648.08 1285.6 C 2550.45 1568.18 2670.25 1883.82 2891.98 2077.23 C 2920.29 2101.92 2972.49 2131.52 3005.5 2150.46 C 3032.36 2165.84 3059.68 2180.41 3087.41 2194.15 C 3107.39 2204.12 3170.82 2230.43 3180.62 2241.75 C 3229.42 2298.09 3063.87 2367.35 3035.07 2379.84 C 2783.44 2488.98 2489.35 2513.52 2231.73 2410.44 C 2109.97 2361.86 2021.91 2302.5 1923.57 2217.49 C 1933.89 2207.31 1944.09 2197.01 1954.16 2186.58 C 2133.71 1999.1 2253.53 1724.45 2247.5 1462.94 C 2240.88 1175.98 2117.12 944.103 1913.01 749.019 z"/>
<path transform="translate(0,0)" fill="rgb(0,0,0)" d="M 761.951 3014.66 C 771.524 3014.07 781.125 3014.1 790.695 3014.74 C 848.832 3018.83 888.69 3037.35 926.828 3081.13 L 926.836 3027.33 L 1046.93 3027.35 L 1046.91 3491.2 C 1008.59 3489.86 965.209 3490.78 926.505 3490.71 C 926.947 3473.17 926.769 3454.91 926.853 3437.31 C 916.335 3449.17 911.324 3454.31 899.304 3464.57 C 825.543 3520.42 717.073 3515.76 645.114 3459.03 C 593.199 3418.44 559.949 3358.54 552.956 3293.02 C 536.72 3153.79 618.789 3030.72 761.951 3014.66 z M 815.388 3387.79 C 885.678 3378.65 935.616 3314.78 927.539 3244.36 C 919.462 3173.94 856.36 3123.03 785.825 3130.04 C 739.233 3134.67 698.749 3164.04 679.894 3206.89 C 661.039 3249.75 666.739 3299.44 694.807 3336.92 C 722.876 3374.39 768.959 3393.83 815.388 3387.79 z"/>
<path transform="translate(0,0)" fill="rgb(0,0,0)" d="M 2744.42 3014.65 C 2749.2 3014.29 2754 3014.12 2758.8 3014.14 C 2823.98 3014.74 2863.74 3033.94 2908.18 3079.32 L 2908.21 3027.33 C 2948.12 3026.93 2988.54 3027.32 3028.5 3027.38 L 3028.17 3490.98 L 2908.16 3490.55 L 2908.05 3438.8 C 2900.25 3446.94 2892.14 3454.6 2884 3462.4 C 2809.04 3520.44 2700.91 3516.79 2626.89 3458.89 C 2575.07 3418.26 2541.87 3358.4 2534.84 3292.93 C 2518.73 3153.53 2601.11 3030.48 2744.42 3014.65 z M 2791.97 3388.4 C 2863.42 3382.13 2916.24 3319.08 2909.88 3247.64 C 2903.53 3176.19 2840.42 3123.46 2768.98 3129.9 C 2697.66 3136.32 2645.03 3199.31 2651.38 3270.63 C 2657.72 3341.95 2720.64 3394.66 2791.97 3388.4 z"/>
<path transform="translate(0,0)" fill="rgb(0,0,0)" d="M 2187.83 2830.84 C 2224.85 2827.68 2262.13 2830.09 2298.44 2837.99 C 2386.67 2858.02 2453.38 2907.02 2501.1 2982.98 L 2390.35 3047.27 C 2320.14 2932.04 2152.94 2923.47 2064.17 3020.42 C 1989.8 3102.92 1995.23 3256.04 2080.86 3328.83 C 2164.54 3399.97 2300.88 3395.13 2373.71 3310.55 C 2380.42 3301.98 2384.31 3295.18 2389.82 3285.92 L 2501.2 3350.57 C 2395.82 3519.06 2166.94 3552.97 2010.86 3434.44 C 1864.61 3323.38 1843.31 3093.12 1956.98 2952.17 C 2017.84 2876.7 2092.32 2841.08 2187.83 2830.84 z"/>
<path transform="translate(0,0)" fill="rgb(0,0,0)" d="M 3483.37 2842.65 C 3521.62 2840.95 3564.97 2842.35 3603.55 2842.96 L 3603.52 3077.05 C 3691.84 2966.13 3883.16 3006.86 3909.77 3148.4 C 3919.18 3198.46 3916.19 3249.4 3916.11 3300.19 L 3915.9 3490.85 C 3876.24 3490.27 3835.39 3490.61 3795.64 3490.51 L 3795.92 3305.66 C 3796.16 3260.42 3804.39 3190.04 3773.8 3154.15 C 3759.2 3137.02 3732.46 3126.59 3709.95 3126.51 C 3585.68 3126.06 3603.31 3242.93 3603.44 3328.4 L 3603.43 3490.85 C 3563.77 3490.27 3522.89 3490.62 3483.14 3490.54 L 3483.37 2842.65 z"/>
<path transform="translate(0,0)" fill="rgb(0,0,0)" d="M 3244.03 3014.65 C 3267.23 3013.34 3290.5 3015.45 3313.09 3020.9 C 3369.03 3034.54 3406.01 3065.04 3435.62 3113.12 C 3402.81 3132.05 3366.35 3151.16 3332.92 3169.46 C 3288.42 3075.79 3156.45 3141.21 3223.91 3184.72 C 3272.75 3216.23 3372.65 3214.44 3414.65 3269.01 C 3481.45 3355.78 3433.21 3473.37 3327.56 3495.09 C 3292.35 3502.41 3276.07 3504.06 3241.13 3503.62 C 3154.67 3496.34 3104.01 3470.98 3063.04 3392.98 C 3097.67 3373.05 3132.56 3353.56 3167.69 3334.51 C 3175.05 3351.8 3180.08 3362.49 3195.58 3374.91 C 3217.55 3392.53 3246.79 3396.62 3274.11 3394.06 C 3289.41 3392.62 3304.94 3388.44 3314.92 3375.99 C 3319.96 3369.71 3322.88 3357.42 3320.89 3350.62 C 3310.28 3314.32 3218.27 3303.76 3184.74 3288.56 C 3162.76 3281.22 3147.52 3272.81 3128.72 3259.19 C 3071.55 3217.78 3069.59 3127.78 3111.69 3074.78 C 3143.3 3034.99 3193.52 3019.89 3244.03 3014.65 z"/>
<path transform="translate(0,0)" fill="rgb(0,0,0)" d="M 399.372 2842.72 C 438.943 2840.81 487.513 2842.12 527.376 2842.96 L 527.458 3148.06 C 527.518 3203.54 529.779 3263.22 525.357 3318.3 C 511.576 3489.93 317.958 3540.51 179.372 3478.77 C 132.25 3454.37 109.573 3425.4 84.4934 3380.05 C 121.45 3358.72 158.541 3337.63 195.765 3316.77 C 220.371 3359.74 250.543 3378.4 301.593 3377.72 C 329.993 3377.34 355.606 3372.41 376.74 3351.27 C 388.518 3339.98 395.536 3324.32 397.056 3307.81 C 401.672 3257.7 399.753 3203.54 399.768 3153.24 L 399.372 2842.72 z"/>
<path transform="translate(0,0)" fill="rgb(0,0,0)" d="M 1501.97 3027.32 C 1616.03 3025.44 1735.29 3027.3 1849.65 3027.39 L 1849.6 3107.9 C 1783.83 3194.61 1718.8 3289.69 1653.75 3378.02 C 1721.88 3376.85 1790.03 3376.86 1858.16 3378.05 L 1857.75 3488.37 C 1857.54 3488.61 1857.39 3488.95 1857.11 3489.11 C 1849.91 3493.11 1533.55 3490.49 1492.82 3490.5 C 1493.59 3464.14 1493.19 3436.69 1493.13 3410.24 L 1687.02 3140.66 L 1501.87 3140.22 L 1501.97 3027.32 z"/>
<path transform="translate(0,0)" fill="rgb(0,0,0)" d="M 1111.32 3027.31 C 1226.21 3025.9 1343.97 3027.29 1459.03 3027.39 L 1458.97 3107.52 C 1437.53 3134.56 1412.17 3171.85 1391.58 3200.31 L 1262.96 3378.01 C 1325.99 3375.9 1404.73 3376.39 1467.65 3378.03 L 1467.43 3490.22 C 1456.93 3491.96 1376.61 3490.31 1360.73 3490.29 L 1102.29 3490.47 C 1103.07 3464.2 1102.56 3435.63 1102.57 3409.18 C 1167.14 3325 1232.82 3227.31 1296.37 3140.66 L 1111.27 3140.19 L 1111.32 3027.31 z"/>
</svg>