<svg version="1.1" xmlns="http://www.w3.org/2000/svg" style="display: block;" viewBox="0 0 2048 1229" width="1000" height="600" preserveAspectRatio="none">
<path transform="translate(0,0)" fill="rgb(191,0,1)" d="M 1023.33 1067.21 C 917.969 1162.68 782.262 1217.85 640.173 1222.98 C 478.277 1228.6 320.871 1169.17 203.081 1057.96 C 106.967 967.34 43.0482 847.833 21.0295 717.584 C -11.8072 524.132 52.4916 330.597 187.36 191.657 C 199.219 179.44 213.124 168.031 226.084 156.975 C 328.798 69.0688 458.126 18.3198 593.213 12.9114 C 750.887 8.05325 908.863 60.9453 1024.52 169.768 C 1033.15 158.369 1056.18 140.841 1068.28 131.665 C 1148.81 70.9256 1243.61 31.933 1343.58 18.4396 C 1503.77 -4.62734 1666.53 37.4917 1795.43 135.372 C 1923.57 232.465 2007.83 376.553 2029.6 535.848 C 2051.47 694.849 2009.13 856.015 1911.94 983.737 C 1815.03 1111.59 1671.35 1195.78 1512.44 1217.8 C 1353.32 1239.67 1192.03 1197.45 1064.04 1100.42 C 1050.31 1089.97 1036.05 1076.56 1023.33 1067.21 z"/>
<path transform="translate(0,0)" fill="rgb(254,134,8)" d="M 1024.52 169.768 C 1033.15 158.369 1056.18 140.841 1068.28 131.665 C 1148.81 70.9256 1243.61 31.933 1343.58 18.4396 C 1503.77 -4.62734 1666.53 37.4917 1795.43 135.372 C 1923.57 232.465 2007.83 376.553 2029.6 535.848 C 2051.47 694.849 2009.13 856.015 1911.94 983.737 C 1815.03 1111.59 1671.35 1195.78 1512.44 1217.8 C 1353.32 1239.67 1192.03 1197.45 1064.04 1100.42 C 1050.31 1089.97 1036.05 1076.56 1023.33 1067.21 C 1048.32 1043.58 1064.48 1026.81 1086.64 1000.65 C 1046.12 1001.34 1003.59 1000.65 962.904 1000.64 C 945.308 978.871 932.877 961.317 917.597 938.023 L 1131.33 938.062 C 1144.09 919.036 1156.4 894.144 1166.42 873.695 C 1134.3 872.865 1099.71 873.494 1067.44 873.494 L 882.764 873.554 C 873.184 855 864.067 829.596 857.228 809.893 L 1191.99 809.864 C 1198.2 791.175 1203.12 772.12 1207.95 753.042 C 1182.03 711.233 1181.5 669.002 1187.35 621.489 C 1176.62 618.578 1171.9 618.261 1161.6 623.032 C 1158.79 624.332 1156.71 626.075 1153.69 626.761 C 1160.48 605.572 1169.15 593.719 1192.29 598.341 C 1198.47 566.695 1202.86 552.587 1215.91 523.806 L 1215.31 523.375 C 1214.68 513.946 1211.21 498.044 1209.36 488.291 C 1154.24 489.874 1092.07 488.607 1036.43 488.587 C 971.944 488.563 903.439 489.726 839.28 488.3 C 844.675 465.537 849.477 446.926 856.708 424.73 L 1191.59 424.683 C 1184.03 402.666 1175.29 381.069 1165.43 359.984 L 882.683 359.984 C 892.446 337.975 904.759 316.729 917.322 296.231 C 987.727 296.97 1060 296.344 1130.46 296.217 C 1119.91 278.171 1097.05 247.068 1083.44 231.587 C 1044.8 232.334 1003.28 231.87 964.565 231.658 C 975.299 219.244 986.511 207.25 998.176 195.705 C 1003.18 190.84 1023.21 173.123 1024.52 169.768 z"/>
<path transform="translate(0,0)" fill="rgb(254,254,254)" d="M 1910.22 468.76 C 1931.39 468.592 1953.65 468.348 1974.79 468.86 C 1971.42 493.085 1967.48 517.733 1963.36 541.868 C 1950.15 619.374 1939.42 697.692 1925.65 775.063 L 1912.06 775.121 L 1862.74 775.098 C 1863.97 769.334 1864.94 758.98 1865.68 752.806 C 1804.59 810.227 1736.8 769.646 1727.28 694.005 C 1721.56 645.59 1735.04 596.859 1764.85 558.279 C 1785.8 533.996 1816.36 515.227 1849.65 523.441 C 1864.17 527.024 1872.88 533.234 1884.47 541.866 C 1886.71 523.869 1889.09 505.89 1891.61 487.931 L 1907.32 488.004 L 1910.22 468.76 z"/>
<path transform="translate(0,0)" fill="rgb(1,1,85)" d="M 1891.61 487.931 L 1907.32 488.004 C 1904.06 507.215 1898.5 535.978 1896.66 554.699 C 1892.67 550.353 1888.61 546.075 1884.47 541.866 C 1886.71 523.869 1889.09 505.89 1891.61 487.931 z"/>
<path transform="translate(0,0)" fill="rgb(254,134,8)" d="M 1808.27 608.75 C 1827.36 576.445 1869.51 571.923 1878.2 613.142 C 1884.53 643.115 1877.31 687.615 1852.37 707.884 C 1833.23 724.333 1803.84 716.505 1797.85 691.007 C 1791.53 664.112 1794.99 633.006 1808.27 608.75 z"/>
<path transform="translate(0,0)" fill="rgb(1,1,85)" d="M 1808.27 608.75 C 1827.36 576.445 1869.51 571.923 1878.2 613.142 C 1884.53 643.115 1877.31 687.615 1852.37 707.884 C 1852.63 706.716 1853.24 704.957 1853.77 703.903 C 1871.42 669.009 1871.52 578.686 1808.27 608.75 z"/>
<path transform="translate(0,0)" fill="rgb(254,254,254)" d="M 1447.33 534.047 C 1495.22 517.176 1586.54 502.857 1609.14 566.15 C 1611.99 574.146 1613.54 584.347 1614.92 592.796 C 1611.25 624.312 1605.33 657.406 1601.16 688.981 C 1599.81 699.169 1590.44 771.803 1587.15 775.221 C 1578.9 774.751 1569.38 775.015 1561.01 775.067 L 1532.1 775.065 C 1532.53 766.858 1533.21 758.667 1534.13 750.501 C 1522.32 762.69 1517.08 766.467 1502.14 773.91 L 1497.31 775.628 C 1428.09 795.239 1393.25 744.954 1409.6 681.343 C 1413.56 665.937 1420.96 655.997 1431.16 644.333 C 1435.9 641.115 1439.27 637.941 1444.42 634.632 C 1467.77 619.623 1492.18 615.335 1519.51 614.996 C 1510.39 583.664 1430.3 601.629 1407.97 608.772 L 1417.25 553.713 C 1425.61 550.368 1436.82 547.295 1445.55 545.203 L 1447.33 534.047 z"/>
<path transform="translate(0,0)" fill="rgb(1,1,85)" d="M 1417.25 553.713 C 1425.61 550.368 1436.82 547.295 1445.55 545.203 L 1438.06 589.64 C 1465.1 580.972 1492.24 577.019 1520.73 578.687 C 1549.45 580.368 1551.28 591.303 1548.53 616.199 C 1539.34 615.725 1528.58 614.915 1519.51 614.996 C 1510.39 583.664 1430.3 601.629 1407.97 608.772 L 1417.25 553.713 z"/>
<path transform="translate(0,0)" fill="rgb(1,1,85)" d="M 1473 683.66 C 1479.01 673.522 1488.88 668.84 1500.01 665.865 C 1507.9 663.755 1529.56 660.458 1536.54 663.836 C 1538.64 665.917 1539.72 668.871 1539.36 671.807 C 1536.23 697.125 1523.65 722.458 1496.28 725.892 C 1491.08 725.945 1486.21 725.657 1481.46 723.231 C 1475.89 720.393 1471.71 715.425 1469.86 709.456 C 1467.23 701.168 1469.1 691.249 1473 683.66 z"/>
<path transform="translate(0,0)" fill="rgb(254,134,8)" d="M 1473 683.66 C 1483.41 683.024 1494.54 682.334 1504.96 682.918 C 1504.61 708.67 1502.25 705.011 1496.28 725.892 C 1491.08 725.945 1486.21 725.657 1481.46 723.231 C 1475.89 720.393 1471.71 715.425 1469.86 709.456 C 1467.23 701.168 1469.1 691.249 1473 683.66 z"/>
<path transform="translate(0,0)" fill="rgb(254,254,254)" d="M 1267.89 491.436 C 1322.48 453.79 1362.56 454.771 1423.96 477.299 L 1413.45 545.789 C 1409.5 543.52 1404.86 540.685 1400.78 538.849 C 1363.23 521.405 1319.02 521.982 1294.37 560.749 C 1258.95 612.163 1254.43 730.886 1348.96 715.714 C 1358.11 714.246 1368.67 710.144 1377.24 706.567 C 1380.85 704.93 1385.06 703.142 1388.54 701.39 C 1386.01 718.781 1381.04 742.779 1379.41 759.278 C 1377.93 764.249 1377.59 767.091 1376.92 772.277 L 1362.48 775.389 C 1361.84 780.415 1360.79 786.09 1359.98 791.152 C 1302.65 807.552 1245.35 804.566 1207.95 753.042 C 1182.03 711.233 1181.5 669.002 1187.35 621.489 C 1176.62 618.578 1171.9 618.261 1161.6 623.032 C 1158.79 624.332 1156.71 626.075 1153.69 626.761 C 1160.48 605.572 1169.15 593.719 1192.29 598.341 C 1198.47 566.695 1202.86 552.587 1215.91 523.806 C 1217.29 524.426 1223.11 526.848 1223.61 526.309 C 1233.81 515.319 1253.13 495.955 1267.89 491.436 z"/>
<path transform="translate(0,0)" fill="rgb(1,1,85)" d="M 1215.91 523.806 C 1217.29 524.426 1223.11 526.848 1223.61 526.309 C 1233.81 515.319 1253.13 495.955 1267.89 491.436 C 1224.2 532.243 1207.52 575.128 1204.93 634.093 C 1200.17 742.442 1256.6 796.616 1362.48 775.389 C 1361.84 780.415 1360.79 786.09 1359.98 791.152 C 1302.65 807.552 1245.35 804.566 1207.95 753.042 C 1182.03 711.233 1181.5 669.002 1187.35 621.489 C 1176.62 618.578 1171.9 618.261 1161.6 623.032 C 1158.79 624.332 1156.71 626.075 1153.69 626.761 C 1160.48 605.572 1169.15 593.719 1192.29 598.341 C 1198.47 566.695 1202.86 552.587 1215.91 523.806 z"/>
<path transform="translate(0,0)" fill="rgb(254,254,254)" d="M 1694.36 561.014 C 1713.35 534.948 1722.7 521.313 1756.69 523.567 C 1748.78 540.661 1736.84 569.014 1735.64 587.957 C 1734.43 591.939 1734.24 595.12 1731.54 597.499 C 1721.09 599.471 1713.93 592.744 1703.33 607.927 C 1697.52 616.25 1693.44 628.055 1690.69 637.872 C 1678.81 679.983 1674.31 732.223 1665.73 775.673 C 1661.98 775.601 1654.74 775.257 1651.28 775.68 L 1648.74 795.085 L 1582.78 795.125 C 1583.72 789.934 1584.79 779.153 1587.15 775.221 C 1590.44 771.803 1599.81 699.169 1601.16 688.981 C 1605.33 657.406 1611.25 624.312 1614.92 592.796 C 1617.4 585.602 1621.42 554.5 1622.69 545.628 L 1636.67 545.843 C 1637.66 539.499 1638.97 532.333 1639.46 525.997 L 1699.86 525.949 C 1697.96 537.627 1696.13 549.315 1694.36 561.014 z"/>
<path transform="translate(0,0)" fill="rgb(1,1,85)" d="M 1622.69 545.628 L 1636.67 545.843 L 1612.81 693.347 C 1608.58 719.615 1603.04 749.628 1599.68 775.753 C 1616.88 775.879 1634.08 775.854 1651.28 775.68 L 1648.74 795.085 L 1582.78 795.125 C 1583.72 789.934 1584.79 779.153 1587.15 775.221 C 1590.44 771.803 1599.81 699.169 1601.16 688.981 C 1605.33 657.406 1611.25 624.312 1614.92 592.796 C 1617.4 585.602 1621.42 554.5 1622.69 545.628 z"/>
<path transform="translate(0,0)" fill="rgb(1,1,85)" d="M 1735.64 587.957 C 1741.67 579.996 1755.74 561.384 1764.85 558.279 C 1735.04 596.859 1721.56 645.59 1727.28 694.005 C 1736.8 769.646 1804.59 810.227 1865.68 752.806 C 1864.94 758.98 1863.97 769.334 1862.74 775.098 L 1912.06 775.121 C 1911.47 780.293 1909.58 789.17 1908.6 794.585 C 1888.52 794.047 1866.81 794.453 1846.6 794.453 L 1849.3 772.078 C 1842.9 778.189 1836.06 783.699 1828.34 788.062 C 1810.42 798.402 1789.09 801.114 1769.15 795.59 C 1734.26 785.741 1717.39 752.735 1711.78 719.497 C 1706 685.247 1711.66 652.559 1720.85 619.593 C 1704.97 622.558 1701.23 626.174 1690.69 637.872 C 1693.44 628.055 1697.52 616.25 1703.33 607.927 C 1713.93 592.744 1721.09 599.471 1731.54 597.499 C 1734.24 595.12 1734.43 591.939 1735.64 587.957 z"/>
<path transform="translate(0,0)" fill="rgb(1,1,85)" d="M 1377.24 706.567 C 1379.97 697.023 1381.92 690.126 1386.57 681.296 C 1395.94 663.543 1411.98 650.244 1431.16 644.333 C 1420.96 655.997 1413.56 665.937 1409.6 681.343 C 1393.25 744.954 1428.09 795.239 1497.31 775.628 C 1474.81 801.456 1423.38 808.37 1397.15 785.106 C 1387.83 776.837 1384.42 770.152 1379.41 759.278 C 1381.04 742.779 1386.01 718.781 1388.54 701.39 C 1385.06 703.142 1380.85 704.93 1377.24 706.567 z"/>
<path transform="translate(0,0)" fill="rgb(1,1,85)" d="M 1294.37 560.749 C 1319.02 521.982 1363.23 521.405 1400.78 538.849 C 1398.99 547.483 1397.83 556.285 1396.57 565.017 C 1372.95 550.769 1348.18 542.943 1320.2 548.892 C 1310.83 550.884 1296.48 560.427 1294.37 560.749 z"/>
<path transform="translate(0,0)" fill="rgb(1,1,85)" d="M 1534.13 750.501 C 1533.21 758.667 1532.53 766.858 1532.1 775.065 L 1561.01 775.067 C 1559.97 780.775 1559.21 788.323 1558.45 794.215 C 1539.68 794.464 1520.6 794.302 1501.81 794.31 L 1502.14 773.91 C 1517.08 766.467 1522.32 762.69 1534.13 750.501 z"/>
<path transform="translate(0,0)" fill="rgb(249,243,199)" d="M 1969.31 737.531 C 1979.81 735.204 1990.24 741.729 1992.75 752.193 C 1995.25 762.658 1988.9 773.199 1978.48 775.88 C 1971.58 777.656 1964.26 775.571 1959.33 770.428 C 1954.4 765.284 1952.63 757.881 1954.7 751.063 C 1956.77 744.245 1962.35 739.072 1969.31 737.531 z"/>
<path transform="translate(0,0)" fill="rgb(254,134,8)" d="M 1968.54 741.487 C 1977.03 738.665 1986.19 743.288 1988.96 751.791 C 1991.73 760.293 1987.05 769.426 1978.53 772.145 C 1970.09 774.84 1961.05 770.21 1958.3 761.78 C 1955.56 753.35 1960.13 744.285 1968.54 741.487 z"/>
<path transform="translate(0,0)" fill="rgb(249,243,199)" d="M 1964.94 745.944 C 1971.11 745.91 1978.34 745.057 1981.58 751.283 C 1981.12 754.933 1980.38 754.733 1977.63 757.85 C 1977.32 762.164 1981.09 761.655 1981.58 766.886 L 1980 768.323 L 1969.9 755.484 C 1969.07 759.617 1969.03 763.508 1966.78 766.88 L 1965.81 766.045 C 1964.49 759.409 1964.87 752.718 1964.94 745.944 z"/>
<path transform="translate(0,0)" fill="rgb(254,254,254)" d="M 1153.67 561.182 C 1170.86 535.659 1182.68 521.33 1215.31 523.375 L 1215.91 523.806 C 1202.86 552.587 1198.47 566.695 1192.29 598.341 C 1169.15 593.719 1160.48 605.572 1153.69 626.761 C 1144.79 649.644 1139.08 689.787 1135.15 714.65 C 1132.17 733.518 1127.91 756.886 1125.5 775.761 L 1111.23 775.8 L 1058.96 775.761 L 1095.85 545.642 L 1099.03 525.987 L 1159.21 525.936 L 1153.67 561.182 z"/>
<path transform="translate(0,0)" fill="rgb(1,1,85)" d="M 1082.36 545.577 C 1086.83 545.545 1091.37 545.616 1095.85 545.642 L 1058.96 775.761 L 1111.23 775.8 L 1108.61 794.959 L 1042.53 795.05 C 1054.69 712.203 1069.48 628.501 1082.36 545.577 z"/>
<path transform="translate(0,0)" fill="rgb(254,254,254)" d="M 283.04 468.223 L 385 468.348 C 374.162 541.526 360.121 615.105 348.848 688.229 C 344.976 713.349 337.075 751.447 334.619 775.611 L 320.139 775.709 C 319.501 782.266 318.571 788.239 317.561 794.732 C 295.596 794.821 273.63 794.779 251.665 794.606 C 255.131 775.061 279.856 627.948 278.266 620.591 C 271.613 636.2 266.126 653.483 260.182 669.473 C 247.159 704.503 235.374 740.811 222.085 775.675 L 211.833 775.753 C 209.894 782.373 207.484 788.464 205.031 794.897 L 160.956 794.681 C 160.445 757.994 159.642 721.312 158.547 684.638 C 158.329 677.865 158.696 644.55 156.202 641.134 C 146.532 682.296 141.604 733.368 132.944 775.645 L 118.944 775.692 C 118.392 782.031 117.192 788.501 116.146 794.795 L 52.4995 794.57 C 55.1264 768.069 63.5391 728.608 67.7802 701.338 C 78.8111 630.412 92.744 558.961 103.428 487.947 C 108.846 487.882 113.301 487.99 118.71 488.3 L 122.306 468.387 L 216.444 468.36 L 218.178 569.891 C 218.465 585.591 218.054 604.9 219.174 620.031 C 221 616.828 230.419 587.424 232.194 582.053 L 263.521 487.187 L 276.52 487.625 L 283.04 468.223 z"/>
<path transform="translate(0,0)" fill="rgb(1,1,85)" d="M 103.428 487.947 C 108.846 487.882 113.301 487.99 118.71 488.3 L 87.707 673.491 C 82.16 706.523 76.833 742.929 70.459 775.593 C 86.6204 775.748 102.783 775.78 118.944 775.692 C 118.392 782.031 117.192 788.501 116.146 794.795 L 52.4995 794.57 C 55.1264 768.069 63.5391 728.608 67.7802 701.338 C 78.8111 630.412 92.744 558.961 103.428 487.947 z"/>
<path transform="translate(0,0)" fill="rgb(1,1,85)" d="M 171.829 545.848 C 174.6 604.205 174.029 664.598 176.434 723.11 C 177.15 740.514 176.72 758.364 177.789 775.675 L 211.833 775.753 C 209.894 782.373 207.484 788.464 205.031 794.897 L 160.956 794.681 C 160.445 757.994 159.642 721.312 158.547 684.638 C 158.329 677.865 158.696 644.55 156.202 641.134 C 159.706 610.587 167.269 576.77 171.829 545.848 z"/>
<path transform="translate(0,0)" fill="rgb(1,1,85)" d="M 278.266 620.591 C 282.621 603.307 298.345 562.665 305.118 544.452 C 296.362 592.922 289.088 643.408 281.269 692.188 C 277.761 714.068 269.943 755.503 268.525 775.694 L 320.139 775.709 C 319.501 782.266 318.571 788.239 317.561 794.732 C 295.596 794.821 273.63 794.779 251.665 794.606 C 255.131 775.061 279.856 627.948 278.266 620.591 z"/>
<path transform="translate(0,0)" fill="rgb(1,1,85)" d="M 263.521 487.187 L 276.52 487.625 L 239.849 596.299 C 233.569 614.912 226.351 638.315 219.228 656.305 C 219.706 643.377 218.92 632.162 219.174 620.031 C 221 616.828 230.419 587.424 232.194 582.053 L 263.521 487.187 z"/>
<path transform="translate(0,0)" fill="rgb(254,254,254)" d="M 403.397 533.949 C 451.736 516.602 543.661 503.153 565.586 567.035 C 568.447 575.37 569.434 583.978 570.277 592.701 C 569.516 604.983 567.312 618.766 565.621 631.077 C 560.274 665.338 556.149 700.455 550.64 734.395 C 549.254 744.347 546.719 766.27 544.571 775.152 L 530.241 775.128 C 529.802 780.698 528.489 788.895 527.732 794.624 C 509.825 793.993 489.347 794.447 471.245 794.432 L 471.501 771.413 C 450.326 793.457 422.825 803.989 392.205 797.628 C 347.873 788.419 339.699 740.682 348.579 702.982 C 352.375 686.865 360.084 668.601 374.81 659.424 C 405.749 619.542 442.233 614.082 490.297 615.264 C 481.722 598.176 467.422 597.952 450.278 597.629 C 424.606 597.145 401.754 601.24 377.283 608.861 C 380.725 592.749 384.411 570.438 386.531 554.101 C 391.141 552.041 395.708 549.628 400.708 549.165 C 401.699 544.11 402.595 539.037 403.397 533.949 z"/>
<path transform="translate(0,0)" fill="rgb(1,1,85)" d="M 471.501 771.413 C 450.326 793.457 422.825 803.989 392.205 797.628 C 347.873 788.419 339.699 740.682 348.579 702.982 C 352.375 686.865 360.084 668.601 374.81 659.424 C 357.038 693.699 352.879 744.739 389.027 769.969 C 406.589 782.226 432.225 782.399 452.238 775.831 C 466.987 770.848 480.148 762.037 490.375 750.3 C 489.181 758.954 488.513 766.312 487.881 775.034 L 530.241 775.128 C 529.802 780.698 528.489 788.895 527.732 794.624 C 509.825 793.993 489.347 794.447 471.245 794.432 L 471.501 771.413 z"/>
<path transform="translate(0,0)" fill="rgb(1,1,85)" d="M 386.531 554.101 C 391.141 552.041 395.708 549.628 400.708 549.165 C 398.642 562.691 396.4 576.189 393.983 589.656 C 413.185 583.576 434.212 579.059 453.959 578.71 C 469.917 578.427 497.51 575.481 504.612 592.955 C 506.604 597.856 505.059 610.684 504.49 616.199 C 500.467 616.027 494.038 615.938 490.297 615.264 C 481.722 598.176 467.422 597.952 450.278 597.629 C 424.606 597.145 401.754 601.24 377.283 608.861 C 380.725 592.749 384.411 570.438 386.531 554.101 z"/>
<path transform="translate(0,0)" fill="rgb(191,0,1)" d="M 426.69 688.706 C 431.788 676.957 437.916 673.019 449.027 668.015 C 455.667 665.026 494.416 657.032 495.344 668.086 C 496.719 684.462 483.068 712.529 469.165 720.495 C 456.432 728.34 436.987 728.773 428.38 714.664 C 423.3 706.335 424.548 697.72 426.69 688.706 z"/>
<path transform="translate(0,0)" fill="rgb(1,1,85)" d="M 426.69 688.706 C 431.788 676.957 437.916 673.019 449.027 668.015 C 455.667 665.026 494.416 657.032 495.344 668.086 C 496.719 684.462 483.068 712.529 469.165 720.495 C 472.449 704.117 474.593 700.406 474.949 682.86 C 453.394 682.331 447.1 682.375 426.69 688.706 z"/>
<path transform="translate(0,0)" fill="rgb(254,254,254)" d="M 882.679 571.127 C 895.911 553.338 907.224 539.285 927.417 529.145 C 971.443 507.036 1031.79 519.897 1052.18 568.406 C 1066.77 603.113 1059.36 636.441 1052.29 672.026 L 1040.69 672.014 C 1039.76 679.274 1039.06 684.538 1037.42 691.704 L 921.885 691.264 C 938.436 738.026 1003.04 723.305 1038.3 710.74 C 1041.18 709.712 1044.03 708.639 1046.87 707.519 C 1043.34 727.489 1039.72 750.718 1035.29 770.259 L 1025.37 773.417 C 1024.52 778.57 1023.54 783.7 1022.43 788.804 C 969.861 807.064 883.217 808.039 853.606 750.794 C 849.486 742.83 847.246 733.284 842.977 725.889 C 843.22 722.26 843.116 720.994 842.759 717.472 C 829.668 684.032 851.61 591.447 882.679 571.127 z"/>
<path transform="translate(0,0)" fill="rgb(1,1,85)" d="M 882.679 571.127 C 862.248 607.339 854.323 638.831 856.617 680.536 C 858.638 717.267 874.09 751.027 908.392 767.966 C 942.089 784.607 990.132 782.788 1025.37 773.417 C 1024.52 778.57 1023.54 783.7 1022.43 788.804 C 969.861 807.064 883.217 808.039 853.606 750.794 C 849.486 742.83 847.246 733.284 842.977 725.889 C 843.22 722.26 843.116 720.994 842.759 717.472 C 829.668 684.032 851.61 591.447 882.679 571.127 z"/>
<path transform="translate(0,0)" fill="rgb(1,1,85)" d="M 921.018 671.957 L 1040.69 672.014 C 1039.76 679.274 1039.06 684.538 1037.42 691.704 L 921.885 691.264 C 920.619 684.828 920.955 678.514 921.018 671.957 z"/>
<path transform="translate(0,0)" fill="rgb(1,1,85)" d="M 934.054 599.247 C 944.052 581.529 964.019 569.332 984.424 580.163 C 998.941 587.869 999.366 605.931 998.892 620.613 L 981.706 620.349 C 963.996 620.782 945.035 620.461 927.229 620.471 C 928.534 612.34 930.708 606.576 934.054 599.247 z"/>
<path transform="translate(0,0)" fill="rgb(191,0,1)" d="M 934.054 599.247 C 956.199 594.497 976.316 593.125 981.706 620.349 C 963.996 620.782 945.035 620.461 927.229 620.471 C 928.534 612.34 930.708 606.576 934.054 599.247 z"/>
<path transform="translate(0,0)" fill="rgb(254,254,254)" d="M 591.705 562.061 C 608.058 537.989 621.017 529.022 650.202 522.783 C 671.492 518.231 718.021 520.177 738.707 525.344 C 736.012 543.977 733.475 563.872 730.354 582.364 L 716.338 581.044 C 715.481 588.349 714.46 594.786 713.2 602.034 C 694.976 599.835 668.054 596.701 650.555 600.369 C 653.278 611.177 658.163 615.848 668.337 620.464 C 693.299 631.79 717.003 642.416 724.715 671.76 C 725.763 675.858 726.656 679.994 727.393 684.159 C 728.505 705.381 727.361 716.616 720.126 736.934 C 713.456 748.012 708.641 753.68 698.611 762.152 C 677.705 808.338 579.952 801.795 541.293 790.193 C 542.138 785.072 542.776 780.025 544.571 775.152 C 546.719 766.27 549.254 744.347 550.64 734.395 C 556.149 700.455 560.274 665.338 565.621 631.077 C 567.312 618.766 569.516 604.983 570.277 592.701 C 577.795 581.399 577.046 572.576 591.705 562.061 z"/>
<path transform="translate(0,0)" fill="rgb(1,1,85)" d="M 570.277 592.701 C 577.795 581.399 577.046 572.576 591.705 562.061 C 573.459 607.772 581.488 648.256 626.748 670.897 C 641.658 678.356 669.971 689.143 662.205 709.512 C 660.081 715.587 654.527 718.835 648.994 721.191 C 648.529 721.387 648.062 721.576 647.591 721.757 C 619.948 727.013 593.011 722.263 566.387 714.18 C 565.274 721.832 564.232 730.181 562.93 737.742 L 550.64 734.395 C 556.149 700.455 560.274 665.338 565.621 631.077 C 567.312 618.766 569.516 604.983 570.277 592.701 z"/>
<path transform="translate(0,0)" fill="rgb(191,0,1)" d="M 550.64 734.395 C 556.149 700.455 560.274 665.338 565.621 631.077 C 571.631 640.288 569.946 660.108 581.977 669.78 C 588.663 675.155 594.499 682.469 602.824 686.378 C 617.659 696.024 644.975 701.955 647.591 721.757 C 619.948 727.013 593.011 722.263 566.387 714.18 C 565.274 721.832 564.232 730.181 562.93 737.742 L 550.64 734.395 z"/>
<path transform="translate(0,0)" fill="rgb(1,1,85)" d="M 550.64 734.395 L 562.93 737.742 C 561.444 747.274 559.641 761.791 557.535 770.833 C 593.06 780.923 658.577 784.699 692.032 765.96 C 694.241 764.718 696.434 763.449 698.611 762.152 C 677.705 808.338 579.952 801.795 541.293 790.193 C 542.138 785.072 542.776 780.025 544.571 775.152 C 546.719 766.27 549.254 744.347 550.64 734.395 z"/>
<path transform="translate(0,0)" fill="rgb(1,1,85)" d="M 650.555 600.369 C 656.041 571.191 693.726 580.141 716.338 581.044 C 715.481 588.349 714.46 594.786 713.2 602.034 C 694.976 599.835 668.054 596.701 650.555 600.369 z"/>
<path transform="translate(0,0)" fill="rgb(254,254,254)" d="M 774.042 488.069 C 795.228 488.075 817.802 487.681 838.875 488.216 C 837.006 498.773 833.475 515.813 832.428 525.956 L 864.233 525.889 L 856.178 586.793 L 845.138 586.892 L 843.368 607.396 C 835.628 607.335 826.25 607.497 818.654 607.075 C 815.553 626.96 812.328 646.824 808.979 666.668 C 802.228 707.806 794.379 721.606 842.759 717.472 C 843.116 720.994 843.22 722.26 842.977 725.889 C 840.154 741.251 838.53 756.825 835.899 772.158 L 821.028 776.199 L 818.691 791.385 C 795.135 799.05 757.479 806.165 736.554 788.998 C 725.937 780.288 719.967 765.275 720.213 751.726 C 720.302 746.846 720.711 741.784 720.126 736.934 C 727.361 716.616 728.505 705.381 727.393 684.159 C 728.222 682.77 753.145 527.975 757.552 507.98 L 770.136 508.132 L 774.042 488.069 z"/>
<path transform="translate(0,0)" fill="rgb(1,1,85)" d="M 757.552 507.98 L 770.136 508.132 C 761.257 557.266 752.938 606.499 745.18 655.822 C 741.535 679.305 735.537 708.215 736.285 731.612 C 737.898 782.103 783.478 785.682 821.028 776.199 L 818.691 791.385 C 795.135 799.05 757.479 806.165 736.554 788.998 C 725.937 780.288 719.967 765.275 720.213 751.726 C 720.302 746.846 720.711 741.784 720.126 736.934 C 727.361 716.616 728.505 705.381 727.393 684.159 C 728.222 682.77 753.145 527.975 757.552 507.98 z"/>
<path transform="translate(0,0)" fill="rgb(1,1,85)" d="M 822.019 586.843 L 845.138 586.892 L 843.368 607.396 C 835.628 607.335 826.25 607.497 818.654 607.075 L 822.019 586.843 z"/>
<path transform="translate(0,0)" fill="rgb(254,134,8)" fill-opacity="0.980392" d="M 1970.11 934.412 C 1980.59 932.389 1990.78 939.104 1993.06 949.541 C 1995.33 959.978 1988.86 970.324 1978.49 972.85 C 1971.55 974.54 1964.23 972.335 1959.39 967.091 C 1954.54 961.847 1952.91 954.386 1955.14 947.599 C 1957.36 940.812 1963.09 935.765 1970.11 934.412 z"/>
</svg>